<?xml version="1.0" encoding="utf-8" standalone="no"?>
<!DOCTYPE svg PUBLIC "-//W3C//DTD SVG 1.1//EN"
  "http://www.w3.org/Graphics/SVG/1.1/DTD/svg11.dtd">
<!-- Created with matplotlib (https://matplotlib.org/) -->
<svg height="284.459352pt" version="1.1" viewBox="0 0 240.41283 284.459352" width="240.41283pt" xmlns="http://www.w3.org/2000/svg" xmlns:xlink="http://www.w3.org/1999/xlink">
 <metadata>
  <rdf:RDF xmlns:cc="http://creativecommons.org/ns#" xmlns:dc="http://purl.org/dc/elements/1.1/" xmlns:rdf="http://www.w3.org/1999/02/22-rdf-syntax-ns#">
   <cc:Work>
    <dc:type rdf:resource="http://purl.org/dc/dcmitype/StillImage"/>
    <dc:date>2020-12-19T00:34:37.125334</dc:date>
    <dc:format>image/svg+xml</dc:format>
    <dc:creator>
     <cc:Agent>
      <dc:title>Matplotlib v3.3.2, https://matplotlib.org/</dc:title>
     </cc:Agent>
    </dc:creator>
   </cc:Work>
  </rdf:RDF>
 </metadata>
 <defs>
  <style type="text/css">*{stroke-linecap:butt;stroke-linejoin:round;}</style>
 </defs>
 <g id="figure_1">
  <g id="patch_1">
   <path d="M 0 284.459352 
L 240.41283 284.459352 
L 240.41283 0 
L 0 0 
z
" style="fill:#ffffff;"/>
  </g>
  <g id="axes_1">
   <g id="patch_2">
    <path d="M 31.11783 256.906111 
L 233.21283 256.906111 
L 233.21283 54.811111 
L 31.11783 54.811111 
z
" style="fill:#ffffff;"/>
   </g>
   <g id="matplotlib.axis_1">
    <g id="xtick_1">
     <g id="line2d_1">
      <defs>
       <path d="M 0 2 
L 0 -2 
" id="md139f80e0b" style="stroke:#000000;stroke-width:0.8;"/>
      </defs>
      <g>
       <use style="stroke:#000000;stroke-width:0.8;" x="31.11783" xlink:href="#md139f80e0b" y="256.906111"/>
      </g>
     </g>
     <g id="text_1">
      <!-- 0.0 -->
      <g transform="translate(25.907415 266.772323)scale(0.07497 -0.07497)">
       <defs>
        <path d="M 4.15625 35.296875 
Q 4.15625 48 6.765625 55.734375 
Q 9.375 63.484375 14.515625 67.671875 
Q 19.671875 71.875 27.484375 71.875 
Q 33.25 71.875 37.59375 69.546875 
Q 41.9375 67.234375 44.765625 62.859375 
Q 47.609375 58.5 49.21875 52.21875 
Q 50.828125 45.953125 50.828125 35.296875 
Q 50.828125 22.703125 48.234375 14.96875 
Q 45.65625 7.234375 40.5 3 
Q 35.359375 -1.21875 27.484375 -1.21875 
Q 17.140625 -1.21875 11.234375 6.203125 
Q 4.15625 15.140625 4.15625 35.296875 
z
M 13.1875 35.296875 
Q 13.1875 17.671875 17.3125 11.828125 
Q 21.4375 6 27.484375 6 
Q 33.546875 6 37.671875 11.859375 
Q 41.796875 17.71875 41.796875 35.296875 
Q 41.796875 52.984375 37.671875 58.78125 
Q 33.546875 64.59375 27.390625 64.59375 
Q 21.34375 64.59375 17.71875 59.46875 
Q 13.1875 52.9375 13.1875 35.296875 
z
" id="ArialMT-48"/>
        <path d="M 9.078125 0 
L 9.078125 10.015625 
L 19.09375 10.015625 
L 19.09375 0 
z
" id="ArialMT-46"/>
       </defs>
       <use xlink:href="#ArialMT-48"/>
       <use x="55.615234" xlink:href="#ArialMT-46"/>
       <use x="83.398438" xlink:href="#ArialMT-48"/>
      </g>
     </g>
    </g>
    <g id="xtick_2">
     <g id="line2d_2">
      <g>
       <use style="stroke:#000000;stroke-width:0.8;" x="69.982253" xlink:href="#md139f80e0b" y="256.906111"/>
      </g>
     </g>
     <g id="text_2">
      <!-- 0.5 -->
      <g transform="translate(64.771838 266.772323)scale(0.07497 -0.07497)">
       <defs>
        <path d="M 4.15625 18.75 
L 13.375 19.53125 
Q 14.40625 12.796875 18.140625 9.390625 
Q 21.875 6 27.15625 6 
Q 33.5 6 37.890625 10.78125 
Q 42.28125 15.578125 42.28125 23.484375 
Q 42.28125 31 38.0625 35.34375 
Q 33.84375 39.703125 27 39.703125 
Q 22.75 39.703125 19.328125 37.765625 
Q 15.921875 35.84375 13.96875 32.765625 
L 5.71875 33.84375 
L 12.640625 70.609375 
L 48.25 70.609375 
L 48.25 62.203125 
L 19.671875 62.203125 
L 15.828125 42.96875 
Q 22.265625 47.46875 29.34375 47.46875 
Q 38.71875 47.46875 45.15625 40.96875 
Q 51.609375 34.46875 51.609375 24.265625 
Q 51.609375 14.546875 45.953125 7.46875 
Q 39.0625 -1.21875 27.15625 -1.21875 
Q 17.390625 -1.21875 11.203125 4.25 
Q 5.03125 9.71875 4.15625 18.75 
z
" id="ArialMT-53"/>
       </defs>
       <use xlink:href="#ArialMT-48"/>
       <use x="55.615234" xlink:href="#ArialMT-46"/>
       <use x="83.398438" xlink:href="#ArialMT-53"/>
      </g>
     </g>
    </g>
    <g id="xtick_3">
     <g id="line2d_3">
      <g>
       <use style="stroke:#000000;stroke-width:0.8;" x="108.846676" xlink:href="#md139f80e0b" y="256.906111"/>
      </g>
     </g>
     <g id="text_3">
      <!-- 1.0 -->
      <g transform="translate(103.636261 266.772323)scale(0.07497 -0.07497)">
       <defs>
        <path d="M 37.25 0 
L 28.46875 0 
L 28.46875 56 
Q 25.296875 52.984375 20.140625 49.953125 
Q 14.984375 46.921875 10.890625 45.40625 
L 10.890625 53.90625 
Q 18.265625 57.375 23.78125 62.296875 
Q 29.296875 67.234375 31.59375 71.875 
L 37.25 71.875 
z
" id="ArialMT-49"/>
       </defs>
       <use xlink:href="#ArialMT-49"/>
       <use x="55.615234" xlink:href="#ArialMT-46"/>
       <use x="83.398438" xlink:href="#ArialMT-48"/>
      </g>
     </g>
    </g>
    <g id="xtick_4">
     <g id="line2d_4">
      <g>
       <use style="stroke:#000000;stroke-width:0.8;" x="147.711099" xlink:href="#md139f80e0b" y="256.906111"/>
      </g>
     </g>
     <g id="text_4">
      <!-- 1.5 -->
      <g transform="translate(142.500684 266.772323)scale(0.07497 -0.07497)">
       <use xlink:href="#ArialMT-49"/>
       <use x="55.615234" xlink:href="#ArialMT-46"/>
       <use x="83.398438" xlink:href="#ArialMT-53"/>
      </g>
     </g>
    </g>
    <g id="xtick_5">
     <g id="line2d_5">
      <g>
       <use style="stroke:#000000;stroke-width:0.8;" x="186.575522" xlink:href="#md139f80e0b" y="256.906111"/>
      </g>
     </g>
     <g id="text_5">
      <!-- 2.0 -->
      <g transform="translate(181.365107 266.772323)scale(0.07497 -0.07497)">
       <defs>
        <path d="M 50.34375 8.453125 
L 50.34375 0 
L 3.03125 0 
Q 2.9375 3.171875 4.046875 6.109375 
Q 5.859375 10.9375 9.828125 15.625 
Q 13.8125 20.3125 21.34375 26.46875 
Q 33.015625 36.03125 37.109375 41.625 
Q 41.21875 47.21875 41.21875 52.203125 
Q 41.21875 57.421875 37.46875 61 
Q 33.734375 64.59375 27.734375 64.59375 
Q 21.390625 64.59375 17.578125 60.78125 
Q 13.765625 56.984375 13.71875 50.25 
L 4.6875 51.171875 
Q 5.609375 61.28125 11.65625 66.578125 
Q 17.71875 71.875 27.9375 71.875 
Q 38.234375 71.875 44.234375 66.15625 
Q 50.25 60.453125 50.25 52 
Q 50.25 47.703125 48.484375 43.546875 
Q 46.734375 39.40625 42.65625 34.8125 
Q 38.578125 30.21875 29.109375 22.21875 
Q 21.1875 15.578125 18.9375 13.203125 
Q 16.703125 10.84375 15.234375 8.453125 
z
" id="ArialMT-50"/>
       </defs>
       <use xlink:href="#ArialMT-50"/>
       <use x="55.615234" xlink:href="#ArialMT-46"/>
       <use x="83.398438" xlink:href="#ArialMT-48"/>
      </g>
     </g>
    </g>
    <g id="xtick_6">
     <g id="line2d_6">
      <g>
       <use style="stroke:#000000;stroke-width:0.8;" x="225.439945" xlink:href="#md139f80e0b" y="256.906111"/>
      </g>
     </g>
     <g id="text_6">
      <!-- 2.5 -->
      <g transform="translate(220.22953 266.772323)scale(0.07497 -0.07497)">
       <use xlink:href="#ArialMT-50"/>
       <use x="55.615234" xlink:href="#ArialMT-46"/>
       <use x="83.398438" xlink:href="#ArialMT-53"/>
      </g>
     </g>
    </g>
    <g id="text_7">
     <!-- $D_{KL}$(proteome $\parallel$ human) -->
     <g transform="translate(90.78189 275.610012)scale(0.07497 -0.07497)">
      <defs>
       <path d="M 16.890625 72.90625 
L 38.09375 72.90625 
Q 54.984375 72.90625 63.59375 65.75 
Q 72.21875 58.59375 72.21875 44.484375 
Q 72.21875 35.15625 68.9375 26.53125 
Q 65.671875 17.921875 59.90625 12.015625 
Q 54.109375 5.953125 45.171875 2.96875 
Q 36.234375 0 24.03125 0 
L 2.6875 0 
z
M 25.203125 64.796875 
L 14.203125 8.109375 
L 27.09375 8.109375 
Q 43.65625 8.109375 52.734375 17.625 
Q 61.8125 27.15625 61.8125 44.484375 
Q 61.8125 54.984375 55.953125 59.890625 
Q 50.09375 64.796875 37.59375 64.796875 
z
" id="DejaVuSans-Oblique-68"/>
       <path d="M 16.890625 72.90625 
L 26.8125 72.90625 
L 20.796875 42.1875 
L 59.078125 72.90625 
L 72.21875 72.90625 
L 28.90625 38.09375 
L 60.59375 0 
L 48.578125 0 
L 19.484375 35.5 
L 12.59375 0 
L 2.6875 0 
z
" id="DejaVuSans-Oblique-75"/>
       <path d="M 16.796875 72.90625 
L 26.703125 72.90625 
L 14.203125 8.203125 
L 49.703125 8.203125 
L 48.09375 0 
L 2.6875 0 
z
" id="DejaVuSans-Oblique-76"/>
       <path d="M 23.390625 -21.046875 
Q 16.109375 -11.859375 11.078125 0.4375 
Q 6.0625 12.75 6.0625 25.921875 
Q 6.0625 37.546875 9.8125 48.1875 
Q 14.203125 60.546875 23.390625 72.796875 
L 29.6875 72.796875 
Q 23.78125 62.640625 21.875 58.296875 
Q 18.890625 51.5625 17.1875 44.234375 
Q 15.09375 35.109375 15.09375 25.875 
Q 15.09375 2.390625 29.6875 -21.046875 
z
" id="ArialMT-40"/>
       <path d="M 6.59375 -19.875 
L 6.59375 51.859375 
L 14.59375 51.859375 
L 14.59375 45.125 
Q 17.4375 49.078125 21 51.046875 
Q 24.5625 53.03125 29.640625 53.03125 
Q 36.28125 53.03125 41.359375 49.609375 
Q 46.4375 46.1875 49.015625 39.953125 
Q 51.609375 33.734375 51.609375 26.3125 
Q 51.609375 18.359375 48.75 11.984375 
Q 45.90625 5.609375 40.453125 2.21875 
Q 35.015625 -1.171875 29 -1.171875 
Q 24.609375 -1.171875 21.109375 0.6875 
Q 17.625 2.546875 15.375 5.375 
L 15.375 -19.875 
z
M 14.546875 25.640625 
Q 14.546875 15.625 18.59375 10.84375 
Q 22.65625 6.0625 28.421875 6.0625 
Q 34.28125 6.0625 38.453125 11.015625 
Q 42.625 15.96875 42.625 26.375 
Q 42.625 36.28125 38.546875 41.203125 
Q 34.46875 46.140625 28.8125 46.140625 
Q 23.1875 46.140625 18.859375 40.890625 
Q 14.546875 35.640625 14.546875 25.640625 
z
" id="ArialMT-112"/>
       <path d="M 6.5 0 
L 6.5 51.859375 
L 14.40625 51.859375 
L 14.40625 44 
Q 17.4375 49.515625 20 51.265625 
Q 22.5625 53.03125 25.640625 53.03125 
Q 30.078125 53.03125 34.671875 50.203125 
L 31.640625 42.046875 
Q 28.421875 43.953125 25.203125 43.953125 
Q 22.3125 43.953125 20.015625 42.21875 
Q 17.71875 40.484375 16.75 37.40625 
Q 15.28125 32.71875 15.28125 27.15625 
L 15.28125 0 
z
" id="ArialMT-114"/>
       <path d="M 3.328125 25.921875 
Q 3.328125 40.328125 11.328125 47.265625 
Q 18.015625 53.03125 27.640625 53.03125 
Q 38.328125 53.03125 45.109375 46.015625 
Q 51.90625 39.015625 51.90625 26.65625 
Q 51.90625 16.65625 48.90625 10.90625 
Q 45.90625 5.171875 40.15625 2 
Q 34.421875 -1.171875 27.640625 -1.171875 
Q 16.75 -1.171875 10.03125 5.8125 
Q 3.328125 12.796875 3.328125 25.921875 
z
M 12.359375 25.921875 
Q 12.359375 15.96875 16.703125 11.015625 
Q 21.046875 6.0625 27.640625 6.0625 
Q 34.1875 6.0625 38.53125 11.03125 
Q 42.875 16.015625 42.875 26.21875 
Q 42.875 35.84375 38.5 40.796875 
Q 34.125 45.75 27.640625 45.75 
Q 21.046875 45.75 16.703125 40.8125 
Q 12.359375 35.890625 12.359375 25.921875 
z
" id="ArialMT-111"/>
       <path d="M 25.78125 7.859375 
L 27.046875 0.09375 
Q 23.34375 -0.6875 20.40625 -0.6875 
Q 15.625 -0.6875 12.984375 0.828125 
Q 10.359375 2.34375 9.28125 4.8125 
Q 8.203125 7.28125 8.203125 15.1875 
L 8.203125 45.015625 
L 1.765625 45.015625 
L 1.765625 51.859375 
L 8.203125 51.859375 
L 8.203125 64.703125 
L 16.9375 69.96875 
L 16.9375 51.859375 
L 25.78125 51.859375 
L 25.78125 45.015625 
L 16.9375 45.015625 
L 16.9375 14.703125 
Q 16.9375 10.9375 17.40625 9.859375 
Q 17.875 8.796875 18.921875 8.15625 
Q 19.96875 7.515625 21.921875 7.515625 
Q 23.390625 7.515625 25.78125 7.859375 
z
" id="ArialMT-116"/>
       <path d="M 42.09375 16.703125 
L 51.171875 15.578125 
Q 49.03125 7.625 43.21875 3.21875 
Q 37.40625 -1.171875 28.375 -1.171875 
Q 17 -1.171875 10.328125 5.828125 
Q 3.65625 12.84375 3.65625 25.484375 
Q 3.65625 38.578125 10.390625 45.796875 
Q 17.140625 53.03125 27.875 53.03125 
Q 38.28125 53.03125 44.875 45.953125 
Q 51.46875 38.875 51.46875 26.03125 
Q 51.46875 25.25 51.421875 23.6875 
L 12.75 23.6875 
Q 13.234375 15.140625 17.578125 10.59375 
Q 21.921875 6.0625 28.421875 6.0625 
Q 33.25 6.0625 36.671875 8.59375 
Q 40.09375 11.140625 42.09375 16.703125 
z
M 13.234375 30.90625 
L 42.1875 30.90625 
Q 41.609375 37.453125 38.875 40.71875 
Q 34.671875 45.796875 27.984375 45.796875 
Q 21.921875 45.796875 17.796875 41.75 
Q 13.671875 37.703125 13.234375 30.90625 
z
" id="ArialMT-101"/>
       <path d="M 6.59375 0 
L 6.59375 51.859375 
L 14.453125 51.859375 
L 14.453125 44.578125 
Q 16.890625 48.390625 20.9375 50.703125 
Q 25 53.03125 30.171875 53.03125 
Q 35.9375 53.03125 39.625 50.640625 
Q 43.3125 48.25 44.828125 43.953125 
Q 50.984375 53.03125 60.84375 53.03125 
Q 68.5625 53.03125 72.703125 48.75 
Q 76.859375 44.484375 76.859375 35.59375 
L 76.859375 0 
L 68.109375 0 
L 68.109375 32.671875 
Q 68.109375 37.9375 67.25 40.25 
Q 66.40625 42.578125 64.15625 43.984375 
Q 61.921875 45.40625 58.890625 45.40625 
Q 53.421875 45.40625 49.796875 41.765625 
Q 46.1875 38.140625 46.1875 30.125 
L 46.1875 0 
L 37.40625 0 
L 37.40625 33.6875 
Q 37.40625 39.546875 35.25 42.46875 
Q 33.109375 45.40625 28.21875 45.40625 
Q 24.515625 45.40625 21.359375 43.453125 
Q 18.21875 41.5 16.796875 37.734375 
Q 15.375 33.984375 15.375 26.90625 
L 15.375 0 
z
" id="ArialMT-109"/>
       <path id="ArialMT-32"/>
       <path d="M 13.28125 77.09375 
L 21.09375 77.09375 
L 21.09375 -21.390625 
L 13.28125 -21.390625 
z
M 28.90625 77.09375 
L 36.71875 77.09375 
L 36.71875 -21.390625 
L 28.90625 -21.390625 
z
" id="DejaVuSans-8741"/>
       <path d="M 6.59375 0 
L 6.59375 71.578125 
L 15.375 71.578125 
L 15.375 45.90625 
Q 21.53125 53.03125 30.90625 53.03125 
Q 36.671875 53.03125 40.921875 50.75 
Q 45.171875 48.484375 47 44.484375 
Q 48.828125 40.484375 48.828125 32.859375 
L 48.828125 0 
L 40.046875 0 
L 40.046875 32.859375 
Q 40.046875 39.453125 37.1875 42.453125 
Q 34.328125 45.453125 29.109375 45.453125 
Q 25.203125 45.453125 21.75 43.421875 
Q 18.3125 41.40625 16.84375 37.9375 
Q 15.375 34.46875 15.375 28.375 
L 15.375 0 
z
" id="ArialMT-104"/>
       <path d="M 40.578125 0 
L 40.578125 7.625 
Q 34.515625 -1.171875 24.125 -1.171875 
Q 19.53125 -1.171875 15.546875 0.578125 
Q 11.578125 2.34375 9.640625 5 
Q 7.71875 7.671875 6.9375 11.53125 
Q 6.390625 14.109375 6.390625 19.734375 
L 6.390625 51.859375 
L 15.1875 51.859375 
L 15.1875 23.09375 
Q 15.1875 16.21875 15.71875 13.8125 
Q 16.546875 10.359375 19.234375 8.375 
Q 21.921875 6.390625 25.875 6.390625 
Q 29.828125 6.390625 33.296875 8.421875 
Q 36.765625 10.453125 38.203125 13.9375 
Q 39.65625 17.4375 39.65625 24.078125 
L 39.65625 51.859375 
L 48.4375 51.859375 
L 48.4375 0 
z
" id="ArialMT-117"/>
       <path d="M 40.4375 6.390625 
Q 35.546875 2.25 31.03125 0.53125 
Q 26.515625 -1.171875 21.34375 -1.171875 
Q 12.796875 -1.171875 8.203125 3 
Q 3.609375 7.171875 3.609375 13.671875 
Q 3.609375 17.484375 5.34375 20.625 
Q 7.078125 23.78125 9.890625 25.6875 
Q 12.703125 27.59375 16.21875 28.5625 
Q 18.796875 29.25 24.03125 29.890625 
Q 34.671875 31.15625 39.703125 32.90625 
Q 39.75 34.71875 39.75 35.203125 
Q 39.75 40.578125 37.25 42.78125 
Q 33.890625 45.75 27.25 45.75 
Q 21.046875 45.75 18.09375 43.578125 
Q 15.140625 41.40625 13.71875 35.890625 
L 5.125 37.0625 
Q 6.296875 42.578125 8.984375 45.96875 
Q 11.671875 49.359375 16.75 51.1875 
Q 21.828125 53.03125 28.515625 53.03125 
Q 35.15625 53.03125 39.296875 51.46875 
Q 43.453125 49.90625 45.40625 47.53125 
Q 47.359375 45.171875 48.140625 41.546875 
Q 48.578125 39.3125 48.578125 33.453125 
L 48.578125 21.734375 
Q 48.578125 9.46875 49.140625 6.21875 
Q 49.703125 2.984375 51.375 0 
L 42.1875 0 
Q 40.828125 2.734375 40.4375 6.390625 
z
M 39.703125 26.03125 
Q 34.90625 24.078125 25.34375 22.703125 
Q 19.921875 21.921875 17.671875 20.9375 
Q 15.4375 19.96875 14.203125 18.09375 
Q 12.984375 16.21875 12.984375 13.921875 
Q 12.984375 10.40625 15.640625 8.0625 
Q 18.3125 5.71875 23.4375 5.71875 
Q 28.515625 5.71875 32.46875 7.9375 
Q 36.421875 10.15625 38.28125 14.015625 
Q 39.703125 17 39.703125 22.796875 
z
" id="ArialMT-97"/>
       <path d="M 6.59375 0 
L 6.59375 51.859375 
L 14.5 51.859375 
L 14.5 44.484375 
Q 20.21875 53.03125 31 53.03125 
Q 35.6875 53.03125 39.625 51.34375 
Q 43.5625 49.65625 45.515625 46.921875 
Q 47.46875 44.1875 48.25 40.4375 
Q 48.734375 37.984375 48.734375 31.890625 
L 48.734375 0 
L 39.9375 0 
L 39.9375 31.546875 
Q 39.9375 36.921875 38.90625 39.578125 
Q 37.890625 42.234375 35.28125 43.8125 
Q 32.671875 45.40625 29.15625 45.40625 
Q 23.53125 45.40625 19.453125 41.84375 
Q 15.375 38.28125 15.375 28.328125 
L 15.375 0 
z
" id="ArialMT-110"/>
       <path d="M 12.359375 -21.046875 
L 6.0625 -21.046875 
Q 20.65625 2.390625 20.65625 25.875 
Q 20.65625 35.0625 18.5625 44.09375 
Q 16.890625 51.421875 13.921875 58.15625 
Q 12.015625 62.546875 6.0625 72.796875 
L 12.359375 72.796875 
Q 21.53125 60.546875 25.921875 48.1875 
Q 29.6875 37.546875 29.6875 25.921875 
Q 29.6875 12.75 24.625 0.4375 
Q 19.578125 -11.859375 12.359375 -21.046875 
z
" id="ArialMT-41"/>
      </defs>
      <use transform="translate(0 0.90625)" xlink:href="#DejaVuSans-Oblique-68"/>
      <use transform="translate(77.001953 -15.5)scale(0.7)" xlink:href="#DejaVuSans-Oblique-75"/>
      <use transform="translate(122.905273 -15.5)scale(0.7)" xlink:href="#DejaVuSans-Oblique-76"/>
      <use transform="translate(164.638672 0.90625)" xlink:href="#ArialMT-40"/>
      <use transform="translate(197.939453 0.90625)" xlink:href="#ArialMT-112"/>
      <use transform="translate(253.554688 0.90625)" xlink:href="#ArialMT-114"/>
      <use transform="translate(286.855469 0.90625)" xlink:href="#ArialMT-111"/>
      <use transform="translate(342.470703 0.90625)" xlink:href="#ArialMT-116"/>
      <use transform="translate(370.253906 0.90625)" xlink:href="#ArialMT-101"/>
      <use transform="translate(425.869141 0.90625)" xlink:href="#ArialMT-111"/>
      <use transform="translate(481.484375 0.90625)" xlink:href="#ArialMT-109"/>
      <use transform="translate(564.785156 0.90625)" xlink:href="#ArialMT-101"/>
      <use transform="translate(620.400391 0.90625)" xlink:href="#ArialMT-32"/>
      <use transform="translate(667.666016 0.90625)" xlink:href="#DejaVuSans-8741"/>
      <use transform="translate(737.148438 0.90625)" xlink:href="#ArialMT-32"/>
      <use transform="translate(764.931641 0.90625)" xlink:href="#ArialMT-104"/>
      <use transform="translate(820.546875 0.90625)" xlink:href="#ArialMT-117"/>
      <use transform="translate(876.162109 0.90625)" xlink:href="#ArialMT-109"/>
      <use transform="translate(959.462891 0.90625)" xlink:href="#ArialMT-97"/>
      <use transform="translate(1015.078125 0.90625)" xlink:href="#ArialMT-110"/>
      <use transform="translate(1070.693359 0.90625)" xlink:href="#ArialMT-41"/>
     </g>
    </g>
   </g>
   <g id="matplotlib.axis_2">
    <g id="ytick_1">
     <g id="line2d_7">
      <defs>
       <path d="M 2 0 
L -2 -0 
" id="md132e5cfd6" style="stroke:#000000;stroke-width:0.8;"/>
      </defs>
      <g>
       <use style="stroke:#000000;stroke-width:0.8;" x="31.11783" xlink:href="#md132e5cfd6" y="256.906111"/>
      </g>
     </g>
     <g id="text_8">
      <!-- 0.0 -->
      <g transform="translate(16.197 259.589217)scale(0.07497 -0.07497)">
       <use xlink:href="#ArialMT-48"/>
       <use x="55.615234" xlink:href="#ArialMT-46"/>
       <use x="83.398438" xlink:href="#ArialMT-48"/>
      </g>
     </g>
    </g>
    <g id="ytick_2">
     <g id="line2d_8">
      <g>
       <use style="stroke:#000000;stroke-width:0.8;" x="31.11783" xlink:href="#md132e5cfd6" y="218.041688"/>
      </g>
     </g>
     <g id="text_9">
      <!-- 0.5 -->
      <g transform="translate(16.197 220.724794)scale(0.07497 -0.07497)">
       <use xlink:href="#ArialMT-48"/>
       <use x="55.615234" xlink:href="#ArialMT-46"/>
       <use x="83.398438" xlink:href="#ArialMT-53"/>
      </g>
     </g>
    </g>
    <g id="ytick_3">
     <g id="line2d_9">
      <g>
       <use style="stroke:#000000;stroke-width:0.8;" x="31.11783" xlink:href="#md132e5cfd6" y="179.177265"/>
      </g>
     </g>
     <g id="text_10">
      <!-- 1.0 -->
      <g transform="translate(16.197 181.860371)scale(0.07497 -0.07497)">
       <use xlink:href="#ArialMT-49"/>
       <use x="55.615234" xlink:href="#ArialMT-46"/>
       <use x="83.398438" xlink:href="#ArialMT-48"/>
      </g>
     </g>
    </g>
    <g id="ytick_4">
     <g id="line2d_10">
      <g>
       <use style="stroke:#000000;stroke-width:0.8;" x="31.11783" xlink:href="#md132e5cfd6" y="140.312842"/>
      </g>
     </g>
     <g id="text_11">
      <!-- 1.5 -->
      <g transform="translate(16.197 142.995948)scale(0.07497 -0.07497)">
       <use xlink:href="#ArialMT-49"/>
       <use x="55.615234" xlink:href="#ArialMT-46"/>
       <use x="83.398438" xlink:href="#ArialMT-53"/>
      </g>
     </g>
    </g>
    <g id="ytick_5">
     <g id="line2d_11">
      <g>
       <use style="stroke:#000000;stroke-width:0.8;" x="31.11783" xlink:href="#md132e5cfd6" y="101.448419"/>
      </g>
     </g>
     <g id="text_12">
      <!-- 2.0 -->
      <g transform="translate(16.197 104.131525)scale(0.07497 -0.07497)">
       <use xlink:href="#ArialMT-50"/>
       <use x="55.615234" xlink:href="#ArialMT-46"/>
       <use x="83.398438" xlink:href="#ArialMT-48"/>
      </g>
     </g>
    </g>
    <g id="ytick_6">
     <g id="line2d_12">
      <g>
       <use style="stroke:#000000;stroke-width:0.8;" x="31.11783" xlink:href="#md132e5cfd6" y="62.583996"/>
      </g>
     </g>
     <g id="text_13">
      <!-- 2.5 -->
      <g transform="translate(16.197 65.267102)scale(0.07497 -0.07497)">
       <use xlink:href="#ArialMT-50"/>
       <use x="55.615234" xlink:href="#ArialMT-46"/>
       <use x="83.398438" xlink:href="#ArialMT-53"/>
      </g>
     </g>
    </g>
    <g id="text_14">
     <!-- $D_{KL}$(proteome $\parallel$ uniform) -->
     <g transform="translate(13.04766 198.291631)rotate(-90)scale(0.07497 -0.07497)">
      <defs>
       <path d="M 6.640625 61.46875 
L 6.640625 71.578125 
L 15.4375 71.578125 
L 15.4375 61.46875 
z
M 6.640625 0 
L 6.640625 51.859375 
L 15.4375 51.859375 
L 15.4375 0 
z
" id="ArialMT-105"/>
       <path d="M 8.6875 0 
L 8.6875 45.015625 
L 0.921875 45.015625 
L 0.921875 51.859375 
L 8.6875 51.859375 
L 8.6875 57.375 
Q 8.6875 62.59375 9.625 65.140625 
Q 10.890625 68.5625 14.078125 70.671875 
Q 17.28125 72.796875 23.046875 72.796875 
Q 26.765625 72.796875 31.25 71.921875 
L 29.9375 64.265625 
Q 27.203125 64.75 24.75 64.75 
Q 20.75 64.75 19.09375 63.03125 
Q 17.4375 61.328125 17.4375 56.640625 
L 17.4375 51.859375 
L 27.546875 51.859375 
L 27.546875 45.015625 
L 17.4375 45.015625 
L 17.4375 0 
z
" id="ArialMT-102"/>
      </defs>
      <use transform="translate(0 0.90625)" xlink:href="#DejaVuSans-Oblique-68"/>
      <use transform="translate(77.001953 -15.5)scale(0.7)" xlink:href="#DejaVuSans-Oblique-75"/>
      <use transform="translate(122.905273 -15.5)scale(0.7)" xlink:href="#DejaVuSans-Oblique-76"/>
      <use transform="translate(164.638672 0.90625)" xlink:href="#ArialMT-40"/>
      <use transform="translate(197.939453 0.90625)" xlink:href="#ArialMT-112"/>
      <use transform="translate(253.554688 0.90625)" xlink:href="#ArialMT-114"/>
      <use transform="translate(286.855469 0.90625)" xlink:href="#ArialMT-111"/>
      <use transform="translate(342.470703 0.90625)" xlink:href="#ArialMT-116"/>
      <use transform="translate(370.253906 0.90625)" xlink:href="#ArialMT-101"/>
      <use transform="translate(425.869141 0.90625)" xlink:href="#ArialMT-111"/>
      <use transform="translate(481.484375 0.90625)" xlink:href="#ArialMT-109"/>
      <use transform="translate(564.785156 0.90625)" xlink:href="#ArialMT-101"/>
      <use transform="translate(620.400391 0.90625)" xlink:href="#ArialMT-32"/>
      <use transform="translate(667.666016 0.90625)" xlink:href="#DejaVuSans-8741"/>
      <use transform="translate(737.148438 0.90625)" xlink:href="#ArialMT-32"/>
      <use transform="translate(764.931641 0.90625)" xlink:href="#ArialMT-117"/>
      <use transform="translate(820.546875 0.90625)" xlink:href="#ArialMT-110"/>
      <use transform="translate(876.162109 0.90625)" xlink:href="#ArialMT-105"/>
      <use transform="translate(898.378906 0.90625)" xlink:href="#ArialMT-102"/>
      <use transform="translate(926.162109 0.90625)" xlink:href="#ArialMT-111"/>
      <use transform="translate(981.777344 0.90625)" xlink:href="#ArialMT-114"/>
      <use transform="translate(1015.078125 0.90625)" xlink:href="#ArialMT-109"/>
      <use transform="translate(1098.378906 0.90625)" xlink:href="#ArialMT-41"/>
     </g>
    </g>
   </g>
   <g id="PathCollection_1">
    <path clip-path="url(#p9721e65202)" d="M 31.11783 186.493712 
C 31.537153 186.493712 31.939358 186.327113 32.235864 186.030607 
C 32.53237 185.734101 32.698969 185.331896 32.698969 184.912573 
C 32.698969 184.49325 32.53237 184.091045 32.235864 183.794539 
C 31.939358 183.498033 31.537153 183.331434 31.11783 183.331434 
C 30.698507 183.331434 30.296302 183.498033 29.999796 183.794539 
C 29.70329 184.091045 29.536691 184.49325 29.536691 184.912573 
C 29.536691 185.331896 29.70329 185.734101 29.999796 186.030607 
C 30.296302 186.327113 30.698507 186.493712 31.11783 186.493712 
z
" style="fill:#1f77b4;stroke:#1f77b4;stroke-width:0.8;"/>
    <path clip-path="url(#p9721e65202)" d="M 29.536691 176.938705 
L 32.698969 176.938705 
L 32.698969 173.776427 
L 29.536691 173.776427 
z
" style="fill:#1f77b4;stroke:#1f77b4;stroke-width:0.8;"/>
    <path clip-path="url(#p9721e65202)" d="M 32.698969 170.953406 
L 29.536691 169.372267 
L 29.536691 172.534544 
z
" style="fill:#1f77b4;stroke:#1f77b4;stroke-width:0.8;"/>
    <path clip-path="url(#p9721e65202)" d="M 31.11783 170.306337 
L 32.459471 168.070269 
L 31.11783 165.834201 
L 29.776189 168.070269 
z
" style="fill:#1f77b4;stroke:#1f77b4;stroke-width:0.8;"/>
   </g>
   <g id="PathCollection_2">
    <path clip-path="url(#p9721e65202)" d="M 31.333851 189.147086 
C 31.753174 189.147086 32.155379 188.980487 32.451885 188.683981 
C 32.748391 188.387475 32.91499 187.98527 32.91499 187.565947 
C 32.91499 187.146624 32.748391 186.744419 32.451885 186.447913 
C 32.155379 186.151407 31.753174 185.984808 31.333851 185.984808 
C 30.914528 185.984808 30.512323 186.151407 30.215817 186.447913 
C 29.919311 186.744419 29.752712 187.146624 29.752712 187.565947 
C 29.752712 187.98527 29.919311 188.387475 30.215817 188.683981 
C 30.512323 188.980487 30.914528 189.147086 31.333851 189.147086 
z
" style="fill:#ff7f0e;stroke:#ff7f0e;stroke-width:0.8;"/>
    <path clip-path="url(#p9721e65202)" d="M 29.900088 181.122327 
L 33.062365 181.122327 
L 33.062365 177.96005 
L 29.900088 177.96005 
z
" style="fill:#ff7f0e;stroke:#ff7f0e;stroke-width:0.8;"/>
    <path clip-path="url(#p9721e65202)" d="M 33.146 176.041187 
L 29.983723 174.460048 
L 29.983723 177.622326 
z
" style="fill:#ff7f0e;stroke:#ff7f0e;stroke-width:0.8;"/>
    <path clip-path="url(#p9721e65202)" d="M 31.742923 174.561736 
L 33.084564 172.325668 
L 31.742923 170.0896 
L 30.401282 172.325668 
z
" style="fill:#ff7f0e;stroke:#ff7f0e;stroke-width:0.8;"/>
   </g>
   <g id="PathCollection_3">
    <path clip-path="url(#p9721e65202)" d="M 31.435948 191.198342 
C 31.855271 191.198342 32.257476 191.031744 32.553982 190.735237 
C 32.850488 190.438731 33.017086 190.036526 33.017086 189.617203 
C 33.017086 189.197881 32.850488 188.795676 32.553982 188.499169 
C 32.257476 188.202663 31.855271 188.036065 31.435948 188.036065 
C 31.016625 188.036065 30.61442 188.202663 30.317914 188.499169 
C 30.021408 188.795676 29.854809 189.197881 29.854809 189.617203 
C 29.854809 190.036526 30.021408 190.438731 30.317914 190.735237 
C 30.61442 191.031744 31.016625 191.198342 31.435948 191.198342 
z
" style="fill:#2ca02c;stroke:#2ca02c;stroke-width:0.8;"/>
    <path clip-path="url(#p9721e65202)" d="M 30.234918 181.187444 
L 33.397196 181.187444 
L 33.397196 178.025166 
L 30.234918 178.025166 
z
" style="fill:#2ca02c;stroke:#2ca02c;stroke-width:0.8;"/>
    <path clip-path="url(#p9721e65202)" d="M 33.850183 175.992715 
L 30.687906 174.411576 
L 30.687906 177.573854 
z
" style="fill:#2ca02c;stroke:#2ca02c;stroke-width:0.8;"/>
    <path clip-path="url(#p9721e65202)" d="M 33.178409 175.049167 
L 34.520049 172.8131 
L 33.178409 170.577032 
L 31.836768 172.8131 
z
" style="fill:#2ca02c;stroke:#2ca02c;stroke-width:0.8;"/>
   </g>
   <g id="PathCollection_4">
    <path clip-path="url(#p9721e65202)" d="M 33.079912 194.233327 
C 33.499235 194.233327 33.90144 194.066728 34.197946 193.770222 
C 34.494452 193.473716 34.661051 193.071511 34.661051 192.652188 
C 34.661051 192.232865 34.494452 191.83066 34.197946 191.534154 
C 33.90144 191.237648 33.499235 191.071049 33.079912 191.071049 
C 32.660589 191.071049 32.258384 191.237648 31.961878 191.534154 
C 31.665372 191.83066 31.498773 192.232865 31.498773 192.652188 
C 31.498773 193.071511 31.665372 193.473716 31.961878 193.770222 
C 32.258384 194.066728 32.660589 194.233327 33.079912 194.233327 
z
" style="fill:#d62728;stroke:#d62728;stroke-width:0.8;"/>
    <path clip-path="url(#p9721e65202)" d="M 31.976369 187.313766 
L 35.138647 187.313766 
L 35.138647 184.151488 
L 31.976369 184.151488 
z
" style="fill:#d62728;stroke:#d62728;stroke-width:0.8;"/>
    <path clip-path="url(#p9721e65202)" d="M 35.40789 182.140915 
L 32.245613 180.559776 
L 32.245613 183.722054 
z
" style="fill:#d62728;stroke:#d62728;stroke-width:0.8;"/>
    <path clip-path="url(#p9721e65202)" d="M 34.836395 180.642759 
L 36.178035 178.406691 
L 34.836395 176.170623 
L 33.494754 178.406691 
z
" style="fill:#d62728;stroke:#d62728;stroke-width:0.8;"/>
   </g>
   <g id="PathCollection_5">
    <path clip-path="url(#p9721e65202)" d="M 38.237636 193.194636 
C 38.656959 193.194636 39.059164 193.028037 39.35567 192.731531 
C 39.652176 192.435025 39.818775 192.03282 39.818775 191.613497 
C 39.818775 191.194174 39.652176 190.791969 39.35567 190.495463 
C 39.059164 190.198957 38.656959 190.032358 38.237636 190.032358 
C 37.818313 190.032358 37.416108 190.198957 37.119602 190.495463 
C 36.823096 190.791969 36.656497 191.194174 36.656497 191.613497 
C 36.656497 192.03282 36.823096 192.435025 37.119602 192.731531 
C 37.416108 193.028037 37.818313 193.194636 38.237636 193.194636 
z
" style="fill:#9467bd;stroke:#9467bd;stroke-width:0.8;"/>
    <path clip-path="url(#p9721e65202)" d="M 38.874084 178.202744 
L 42.036361 178.202744 
L 42.036361 175.040466 
L 38.874084 175.040466 
z
" style="fill:#9467bd;stroke:#9467bd;stroke-width:0.8;"/>
    <path clip-path="url(#p9721e65202)" d="M 43.285442 172.627255 
L 40.123164 171.046116 
L 40.123164 174.208394 
z
" style="fill:#9467bd;stroke:#9467bd;stroke-width:0.8;"/>
    <path clip-path="url(#p9721e65202)" d="M 44.967304 171.36942 
L 46.308945 169.133352 
L 44.967304 166.897285 
L 43.625663 169.133352 
z
" style="fill:#9467bd;stroke:#9467bd;stroke-width:0.8;"/>
   </g>
   <g id="PathCollection_6">
    <path clip-path="url(#p9721e65202)" d="M 200.353531 97.350942 
C 200.772854 97.350942 201.175059 97.184343 201.471565 96.887837 
C 201.768071 96.591331 201.934669 96.189126 201.934669 95.769803 
C 201.934669 95.35048 201.768071 94.948275 201.471565 94.651769 
C 201.175059 94.355263 200.772854 94.188664 200.353531 94.188664 
C 199.934208 94.188664 199.532003 94.355263 199.235497 94.651769 
C 198.938991 94.948275 198.772392 95.35048 198.772392 95.769803 
C 198.772392 96.189126 198.938991 96.591331 199.235497 96.887837 
C 199.532003 97.184343 199.934208 97.350942 200.353531 97.350942 
z
" style="fill:#8c564b;stroke:#8c564b;stroke-width:0.8;"/>
    <path clip-path="url(#p9721e65202)" d="M 164.020995 80.065694 
L 167.183273 80.065694 
L 167.183273 76.903416 
L 164.020995 76.903416 
z
" style="fill:#8c564b;stroke:#8c564b;stroke-width:0.8;"/>
    <path clip-path="url(#p9721e65202)" d="M 175.259204 76.282391 
L 172.096927 74.701252 
L 172.096927 77.86353 
z
" style="fill:#8c564b;stroke:#8c564b;stroke-width:0.8;"/>
    <path clip-path="url(#p9721e65202)" d="M 184.654792 68.365107 
L 185.996433 66.129039 
L 184.654792 63.892971 
L 183.313152 66.129039 
z
" style="fill:#8c564b;stroke:#8c564b;stroke-width:0.8;"/>
   </g>
   <g id="PathCollection_7">
    <path clip-path="url(#p9721e65202)" d="M 85.666921 112.615876 
C 86.086244 112.615876 86.488449 112.449277 86.784955 112.152771 
C 87.081461 111.856265 87.24806 111.45406 87.24806 111.034737 
C 87.24806 110.615414 87.081461 110.213209 86.784955 109.916703 
C 86.488449 109.620197 86.086244 109.453598 85.666921 109.453598 
C 85.247598 109.453598 84.845393 109.620197 84.548887 109.916703 
C 84.252381 110.213209 84.085782 110.615414 84.085782 111.034737 
C 84.085782 111.45406 84.252381 111.856265 84.548887 112.152771 
C 84.845393 112.449277 85.247598 112.615876 85.666921 112.615876 
z
" style="fill:#e377c2;stroke:#e377c2;stroke-width:0.8;"/>
    <path clip-path="url(#p9721e65202)" d="M 80.440616 105.756547 
L 83.602894 105.756547 
L 83.602894 102.59427 
L 80.440616 102.59427 
z
" style="fill:#e377c2;stroke:#e377c2;stroke-width:0.8;"/>
    <path clip-path="url(#p9721e65202)" d="M 86.983133 99.023567 
L 83.820855 97.442428 
L 83.820855 100.604705 
z
" style="fill:#e377c2;stroke:#e377c2;stroke-width:0.8;"/>
    <path clip-path="url(#p9721e65202)" d="M 92.445719 95.411938 
L 93.78736 93.17587 
L 92.445719 90.939802 
L 91.104078 93.17587 
z
" style="fill:#e377c2;stroke:#e377c2;stroke-width:0.8;"/>
   </g>
   <g id="PathCollection_8">
    <path clip-path="url(#p9721e65202)" d="M 64.620881 164.360927 
C 65.040204 164.360927 65.442409 164.194329 65.738915 163.897823 
C 66.035421 163.601317 66.20202 163.199112 66.20202 162.779789 
C 66.20202 162.360466 66.035421 161.958261 65.738915 161.661755 
C 65.442409 161.365249 65.040204 161.19865 64.620881 161.19865 
C 64.201558 161.19865 63.799353 161.365249 63.502847 161.661755 
C 63.206341 161.958261 63.039742 162.360466 63.039742 162.779789 
C 63.039742 163.199112 63.206341 163.601317 63.502847 163.897823 
C 63.799353 164.194329 64.201558 164.360927 64.620881 164.360927 
z
" style="fill:#7f7f7f;stroke:#7f7f7f;stroke-width:0.8;"/>
    <path clip-path="url(#p9721e65202)" d="M 62.702359 160.977366 
L 65.864637 160.977366 
L 65.864637 157.815088 
L 62.702359 157.815088 
z
" style="fill:#7f7f7f;stroke:#7f7f7f;stroke-width:0.8;"/>
    <path clip-path="url(#p9721e65202)" d="M 66.509261 156.407831 
L 63.346984 154.826693 
L 63.346984 157.98897 
z
" style="fill:#7f7f7f;stroke:#7f7f7f;stroke-width:0.8;"/>
    <path clip-path="url(#p9721e65202)" d="M 69.940886 153.160996 
L 71.282526 150.924928 
L 69.940886 148.68886 
L 68.599245 150.924928 
z
" style="fill:#7f7f7f;stroke:#7f7f7f;stroke-width:0.8;"/>
   </g>
   <g id="PathCollection_9">
    <path clip-path="url(#p9721e65202)" d="M 59.410833 166.722971 
C 59.830156 166.722971 60.232361 166.556373 60.528867 166.259866 
C 60.825373 165.96336 60.991972 165.561155 60.991972 165.141832 
C 60.991972 164.72251 60.825373 164.320305 60.528867 164.023798 
C 60.232361 163.727292 59.830156 163.560694 59.410833 163.560694 
C 58.99151 163.560694 58.589305 163.727292 58.292799 164.023798 
C 57.996293 164.320305 57.829694 164.72251 57.829694 165.141832 
C 57.829694 165.561155 57.996293 165.96336 58.292799 166.259866 
C 58.589305 166.556373 58.99151 166.722971 59.410833 166.722971 
z
" style="fill:#bcbd22;stroke:#bcbd22;stroke-width:0.8;"/>
    <path clip-path="url(#p9721e65202)" d="M 58.90202 163.622729 
L 62.064298 163.622729 
L 62.064298 160.460451 
L 58.90202 160.460451 
z
" style="fill:#bcbd22;stroke:#bcbd22;stroke-width:0.8;"/>
    <path clip-path="url(#p9721e65202)" d="M 62.891211 159.010459 
L 59.728933 157.42932 
L 59.728933 160.591598 
z
" style="fill:#bcbd22;stroke:#bcbd22;stroke-width:0.8;"/>
    <path clip-path="url(#p9721e65202)" d="M 68.433473 153.89664 
L 69.775114 151.660572 
L 68.433473 149.424504 
L 67.091833 151.660572 
z
" style="fill:#bcbd22;stroke:#bcbd22;stroke-width:0.8;"/>
   </g>
   <g id="line2d_13">
    <path clip-path="url(#p9721e65202)" d="M 31.11783 184.912573 
L 31.11783 175.357566 
L 31.11783 170.953406 
L 31.11783 168.070269 
" style="fill:none;stroke:#1f77b4;stroke-linecap:round;stroke-width:1.3;"/>
   </g>
   <g id="line2d_14">
    <path clip-path="url(#p9721e65202)" d="M 31.333851 187.565947 
L 31.481227 179.541188 
L 31.564862 176.041187 
L 31.742923 172.325668 
" style="fill:none;stroke:#ff7f0e;stroke-linecap:round;stroke-width:1.3;"/>
   </g>
   <g id="line2d_15">
    <path clip-path="url(#p9721e65202)" d="M 31.435948 189.617203 
L 31.816057 179.606305 
L 32.269045 175.992715 
L 33.178409 172.8131 
" style="fill:none;stroke:#2ca02c;stroke-linecap:round;stroke-width:1.3;"/>
   </g>
   <g id="line2d_16">
    <path clip-path="url(#p9721e65202)" d="M 33.079912 192.652188 
L 33.557508 185.732627 
L 33.826752 182.140915 
L 34.836395 178.406691 
" style="fill:none;stroke:#d62728;stroke-linecap:round;stroke-width:1.3;"/>
   </g>
   <g id="line2d_17">
    <path clip-path="url(#p9721e65202)" d="M 38.237636 191.613497 
L 40.455223 176.621605 
L 41.704303 172.627255 
L 44.967304 169.133352 
" style="fill:none;stroke:#9467bd;stroke-linecap:round;stroke-width:1.3;"/>
   </g>
   <g id="line2d_18">
    <path clip-path="url(#p9721e65202)" d="M 200.353531 95.769803 
L 165.602134 78.484555 
L 173.678065 76.282391 
L 184.654792 66.129039 
" style="fill:none;stroke:#8c564b;stroke-linecap:round;stroke-width:1.3;"/>
   </g>
   <g id="line2d_19">
    <path clip-path="url(#p9721e65202)" d="M 85.666921 111.034737 
L 82.021755 104.175409 
L 85.401994 99.023567 
L 92.445719 93.17587 
" style="fill:none;stroke:#e377c2;stroke-linecap:round;stroke-width:1.3;"/>
   </g>
   <g id="line2d_20">
    <path clip-path="url(#p9721e65202)" d="M 64.620881 162.779789 
L 64.283498 159.396227 
L 64.928123 156.407831 
L 69.940886 150.924928 
" style="fill:none;stroke:#7f7f7f;stroke-linecap:round;stroke-width:1.3;"/>
   </g>
   <g id="line2d_21">
    <path clip-path="url(#p9721e65202)" d="M 59.410833 165.141832 
L 60.483159 162.04159 
L 61.310072 159.010459 
L 68.433473 151.660572 
" style="fill:none;stroke:#bcbd22;stroke-linecap:round;stroke-width:1.3;"/>
   </g>
   <g id="line2d_22">
    <path clip-path="url(#p9721e65202)" d="M 31.11783 256.906111 
L 233.21283 54.811111 
" style="fill:none;stroke:#000000;stroke-dasharray:4.81,2.08;stroke-dashoffset:0;stroke-width:1.3;"/>
   </g>
   <g id="patch_3">
    <path d="M 31.11783 256.906111 
L 31.11783 54.811111 
" style="fill:none;stroke:#000000;stroke-linecap:square;stroke-linejoin:miter;"/>
   </g>
   <g id="patch_4">
    <path d="M 31.11783 256.906111 
L 233.21283 256.906111 
" style="fill:none;stroke:#000000;stroke-linecap:square;stroke-linejoin:miter;"/>
   </g>
   <g id="patch_5">
    <path clip-path="url(#p9721e65202)" d="M 30.425356 193.881284 
L 45.659778 193.881284 
L 45.659778 166.841173 
L 30.425356 166.841173 
z
" style="fill:none;opacity:0.5;stroke:#808080;stroke-linejoin:miter;stroke-width:0.8;"/>
   </g>
   <g id="patch_6">
    <path d="M 142.27008 242.759461 
Q 86.347718 218.320372 30.425356 193.881284 
" style="fill:none;opacity:0.5;stroke:#808080;stroke-linecap:round;stroke-width:0.8;"/>
   </g>
   <g id="patch_7">
    <path d="M 142.27008 155.858611 
Q 86.347718 161.349892 30.425356 166.841173 
" style="fill:none;opacity:0.5;stroke:#808080;stroke-linecap:round;stroke-width:0.8;"/>
   </g>
   <g id="legend_1">
    <g id="text_15">
     <!-- Proteome -->
     <g transform="translate(87.847125 22.928209)scale(0.06246 -0.06246)">
      <defs>
       <path d="M 7.71875 0 
L 7.71875 71.578125 
L 34.71875 71.578125 
Q 41.84375 71.578125 45.609375 70.90625 
Q 50.875 70.015625 54.4375 67.546875 
Q 58.015625 65.09375 60.1875 60.640625 
Q 62.359375 56.203125 62.359375 50.875 
Q 62.359375 41.75 56.546875 35.421875 
Q 50.734375 29.109375 35.546875 29.109375 
L 17.1875 29.109375 
L 17.1875 0 
z
M 17.1875 37.546875 
L 35.6875 37.546875 
Q 44.875 37.546875 48.734375 40.96875 
Q 52.59375 44.390625 52.59375 50.59375 
Q 52.59375 55.078125 50.3125 58.265625 
Q 48.046875 61.46875 44.34375 62.5 
Q 41.9375 63.140625 35.5 63.140625 
L 17.1875 63.140625 
z
" id="ArialMT-80"/>
      </defs>
      <use xlink:href="#ArialMT-80"/>
      <use x="66.699219" xlink:href="#ArialMT-114"/>
      <use x="100" xlink:href="#ArialMT-111"/>
      <use x="155.615234" xlink:href="#ArialMT-116"/>
      <use x="183.398438" xlink:href="#ArialMT-101"/>
      <use x="239.013672" xlink:href="#ArialMT-111"/>
      <use x="294.628906" xlink:href="#ArialMT-109"/>
      <use x="377.929688" xlink:href="#ArialMT-101"/>
     </g>
    </g>
    <g id="line2d_23">
     <path d="M 35.17773 29.577271 
L 42.98523 29.577271 
" style="fill:none;stroke:#1f77b4;stroke-linecap:round;stroke-width:1.3;"/>
    </g>
    <g id="line2d_24"/>
    <g id="text_16">
     <!-- Human -->
     <g transform="translate(46.10823 31.763371)scale(0.06246 -0.06246)">
      <defs>
       <path d="M 8.015625 0 
L 8.015625 71.578125 
L 17.484375 71.578125 
L 17.484375 42.1875 
L 54.6875 42.1875 
L 54.6875 71.578125 
L 64.15625 71.578125 
L 64.15625 0 
L 54.6875 0 
L 54.6875 33.734375 
L 17.484375 33.734375 
L 17.484375 0 
z
" id="ArialMT-72"/>
      </defs>
      <use xlink:href="#ArialMT-72"/>
      <use x="72.216797" xlink:href="#ArialMT-117"/>
      <use x="127.832031" xlink:href="#ArialMT-109"/>
      <use x="211.132812" xlink:href="#ArialMT-97"/>
      <use x="266.748047" xlink:href="#ArialMT-110"/>
     </g>
    </g>
    <g id="line2d_25">
     <path d="M 35.17773 38.412433 
L 42.98523 38.412433 
" style="fill:none;stroke:#ff7f0e;stroke-linecap:round;stroke-width:1.3;"/>
    </g>
    <g id="line2d_26"/>
    <g id="text_17">
     <!-- Mouse -->
     <g transform="translate(46.10823 40.598533)scale(0.06246 -0.06246)">
      <defs>
       <path d="M 7.421875 0 
L 7.421875 71.578125 
L 21.6875 71.578125 
L 38.625 20.90625 
Q 40.96875 13.8125 42.046875 10.296875 
Q 43.265625 14.203125 45.84375 21.78125 
L 62.984375 71.578125 
L 75.734375 71.578125 
L 75.734375 0 
L 66.609375 0 
L 66.609375 59.90625 
L 45.796875 0 
L 37.25 0 
L 16.546875 60.9375 
L 16.546875 0 
z
" id="ArialMT-77"/>
       <path d="M 3.078125 15.484375 
L 11.765625 16.84375 
Q 12.5 11.625 15.84375 8.84375 
Q 19.1875 6.0625 25.203125 6.0625 
Q 31.25 6.0625 34.171875 8.515625 
Q 37.109375 10.984375 37.109375 14.3125 
Q 37.109375 17.28125 34.515625 19 
Q 32.71875 20.171875 25.53125 21.96875 
Q 15.875 24.421875 12.140625 26.203125 
Q 8.40625 27.984375 6.46875 31.125 
Q 4.546875 34.28125 4.546875 38.09375 
Q 4.546875 41.546875 6.125 44.5 
Q 7.71875 47.46875 10.453125 49.421875 
Q 12.5 50.921875 16.03125 51.96875 
Q 19.578125 53.03125 23.640625 53.03125 
Q 29.734375 53.03125 34.34375 51.265625 
Q 38.96875 49.515625 41.15625 46.5 
Q 43.359375 43.5 44.1875 38.484375 
L 35.59375 37.3125 
Q 35.015625 41.3125 32.203125 43.546875 
Q 29.390625 45.796875 24.265625 45.796875 
Q 18.21875 45.796875 15.625 43.796875 
Q 13.03125 41.796875 13.03125 39.109375 
Q 13.03125 37.40625 14.109375 36.03125 
Q 15.1875 34.625 17.484375 33.6875 
Q 18.796875 33.203125 25.25 31.453125 
Q 34.578125 28.953125 38.25 27.359375 
Q 41.9375 25.78125 44.03125 22.75 
Q 46.140625 19.734375 46.140625 15.234375 
Q 46.140625 10.84375 43.578125 6.953125 
Q 41.015625 3.078125 36.171875 0.953125 
Q 31.34375 -1.171875 25.25 -1.171875 
Q 15.140625 -1.171875 9.84375 3.03125 
Q 4.546875 7.234375 3.078125 15.484375 
z
" id="ArialMT-115"/>
      </defs>
      <use xlink:href="#ArialMT-77"/>
      <use x="83.300781" xlink:href="#ArialMT-111"/>
      <use x="138.916016" xlink:href="#ArialMT-117"/>
      <use x="194.53125" xlink:href="#ArialMT-115"/>
      <use x="244.53125" xlink:href="#ArialMT-101"/>
     </g>
    </g>
    <g id="line2d_27">
     <path d="M 35.17773 47.247595 
L 42.98523 47.247595 
" style="fill:none;stroke:#2ca02c;stroke-linecap:round;stroke-width:1.3;"/>
    </g>
    <g id="line2d_28"/>
    <g id="text_18">
     <!-- Chicken -->
     <g transform="translate(46.10823 49.433695)scale(0.06246 -0.06246)">
      <defs>
       <path d="M 58.796875 25.09375 
L 68.265625 22.703125 
Q 65.28125 11.03125 57.546875 4.90625 
Q 49.8125 -1.21875 38.625 -1.21875 
Q 27.046875 -1.21875 19.796875 3.484375 
Q 12.546875 8.203125 8.765625 17.140625 
Q 4.984375 26.078125 4.984375 36.328125 
Q 4.984375 47.515625 9.25 55.828125 
Q 13.53125 64.15625 21.40625 68.46875 
Q 29.296875 72.796875 38.765625 72.796875 
Q 49.515625 72.796875 56.828125 67.328125 
Q 64.15625 61.859375 67.046875 51.953125 
L 57.71875 49.75 
Q 55.21875 57.5625 50.484375 61.125 
Q 45.75 64.703125 38.578125 64.703125 
Q 30.328125 64.703125 24.78125 60.734375 
Q 19.234375 56.78125 16.984375 50.109375 
Q 14.75 43.453125 14.75 36.375 
Q 14.75 27.25 17.40625 20.4375 
Q 20.0625 13.625 25.671875 10.25 
Q 31.296875 6.890625 37.84375 6.890625 
Q 45.796875 6.890625 51.3125 11.46875 
Q 56.84375 16.0625 58.796875 25.09375 
z
" id="ArialMT-67"/>
       <path d="M 40.4375 19 
L 49.078125 17.875 
Q 47.65625 8.9375 41.8125 3.875 
Q 35.984375 -1.171875 27.484375 -1.171875 
Q 16.84375 -1.171875 10.375 5.78125 
Q 3.90625 12.75 3.90625 25.734375 
Q 3.90625 34.125 6.6875 40.421875 
Q 9.46875 46.734375 15.15625 49.875 
Q 20.84375 53.03125 27.546875 53.03125 
Q 35.984375 53.03125 41.359375 48.75 
Q 46.734375 44.484375 48.25 36.625 
L 39.703125 35.296875 
Q 38.484375 40.53125 35.375 43.15625 
Q 32.28125 45.796875 27.875 45.796875 
Q 21.234375 45.796875 17.078125 41.03125 
Q 12.9375 36.28125 12.9375 25.984375 
Q 12.9375 15.53125 16.9375 10.796875 
Q 20.953125 6.0625 27.390625 6.0625 
Q 32.5625 6.0625 36.03125 9.234375 
Q 39.5 12.40625 40.4375 19 
z
" id="ArialMT-99"/>
       <path d="M 6.640625 0 
L 6.640625 71.578125 
L 15.4375 71.578125 
L 15.4375 30.765625 
L 36.234375 51.859375 
L 47.609375 51.859375 
L 27.78125 32.625 
L 49.609375 0 
L 38.765625 0 
L 21.625 26.515625 
L 15.4375 20.5625 
L 15.4375 0 
z
" id="ArialMT-107"/>
      </defs>
      <use xlink:href="#ArialMT-67"/>
      <use x="72.216797" xlink:href="#ArialMT-104"/>
      <use x="127.832031" xlink:href="#ArialMT-105"/>
      <use x="150.048828" xlink:href="#ArialMT-99"/>
      <use x="200.048828" xlink:href="#ArialMT-107"/>
      <use x="250.048828" xlink:href="#ArialMT-101"/>
      <use x="305.664062" xlink:href="#ArialMT-110"/>
     </g>
    </g>
    <g id="line2d_29">
     <path d="M 71.795881 29.577271 
L 79.603381 29.577271 
" style="fill:none;stroke:#d62728;stroke-linecap:round;stroke-width:1.3;"/>
    </g>
    <g id="line2d_30"/>
    <g id="text_19">
     <!-- Zebrafish -->
     <g transform="translate(82.726381 31.763371)scale(0.06246 -0.06246)">
      <defs>
       <path d="M 2 0 
L 2 8.796875 
L 38.671875 54.640625 
Q 42.578125 59.515625 46.09375 63.140625 
L 6.15625 63.140625 
L 6.15625 71.578125 
L 57.421875 71.578125 
L 57.421875 63.140625 
L 17.234375 13.484375 
L 12.890625 8.453125 
L 58.59375 8.453125 
L 58.59375 0 
z
" id="ArialMT-90"/>
       <path d="M 14.703125 0 
L 6.546875 0 
L 6.546875 71.578125 
L 15.328125 71.578125 
L 15.328125 46.046875 
Q 20.90625 53.03125 29.546875 53.03125 
Q 34.328125 53.03125 38.59375 51.09375 
Q 42.875 49.171875 45.625 45.671875 
Q 48.390625 42.1875 49.953125 37.25 
Q 51.515625 32.328125 51.515625 26.703125 
Q 51.515625 13.375 44.921875 6.09375 
Q 38.328125 -1.171875 29.109375 -1.171875 
Q 19.921875 -1.171875 14.703125 6.5 
z
M 14.59375 26.3125 
Q 14.59375 17 17.140625 12.84375 
Q 21.296875 6.0625 28.375 6.0625 
Q 34.125 6.0625 38.328125 11.0625 
Q 42.53125 16.0625 42.53125 25.984375 
Q 42.53125 36.140625 38.5 40.96875 
Q 34.46875 45.796875 28.765625 45.796875 
Q 23 45.796875 18.796875 40.796875 
Q 14.59375 35.796875 14.59375 26.3125 
z
" id="ArialMT-98"/>
      </defs>
      <use xlink:href="#ArialMT-90"/>
      <use x="61.083984" xlink:href="#ArialMT-101"/>
      <use x="116.699219" xlink:href="#ArialMT-98"/>
      <use x="172.314453" xlink:href="#ArialMT-114"/>
      <use x="205.615234" xlink:href="#ArialMT-97"/>
      <use x="261.230469" xlink:href="#ArialMT-102"/>
      <use x="289.013672" xlink:href="#ArialMT-105"/>
      <use x="311.230469" xlink:href="#ArialMT-115"/>
      <use x="361.230469" xlink:href="#ArialMT-104"/>
     </g>
    </g>
    <g id="line2d_31">
     <path d="M 71.795881 38.412433 
L 79.603381 38.412433 
" style="fill:none;stroke:#9467bd;stroke-linecap:round;stroke-width:1.3;"/>
    </g>
    <g id="line2d_32"/>
    <g id="text_20">
     <!-- Viruses -->
     <g transform="translate(82.726381 40.598533)scale(0.06246 -0.06246)">
      <defs>
       <path d="M 28.171875 0 
L 0.4375 71.578125 
L 10.6875 71.578125 
L 29.296875 19.578125 
Q 31.546875 13.328125 33.0625 7.859375 
Q 34.71875 13.71875 36.921875 19.578125 
L 56.25 71.578125 
L 65.921875 71.578125 
L 37.890625 0 
z
" id="ArialMT-86"/>
      </defs>
      <use xlink:href="#ArialMT-86"/>
      <use x="64.949219" xlink:href="#ArialMT-105"/>
      <use x="87.166016" xlink:href="#ArialMT-114"/>
      <use x="120.466797" xlink:href="#ArialMT-117"/>
      <use x="176.082031" xlink:href="#ArialMT-115"/>
      <use x="226.082031" xlink:href="#ArialMT-101"/>
      <use x="281.697266" xlink:href="#ArialMT-115"/>
     </g>
    </g>
    <g id="line2d_33">
     <path d="M 71.795881 47.323718 
L 79.603381 47.323718 
" style="fill:none;stroke:#8c564b;stroke-linecap:round;stroke-width:1.3;"/>
    </g>
    <g id="line2d_34"/>
    <g id="text_21">
     <!-- P. falciparum -->
     <g transform="translate(82.726381 49.509818)scale(0.06246 -0.06246)">
      <defs>
       <path d="M 6.390625 0 
L 6.390625 71.578125 
L 15.1875 71.578125 
L 15.1875 0 
z
" id="ArialMT-108"/>
      </defs>
      <use xlink:href="#ArialMT-80"/>
      <use x="53.824219" xlink:href="#ArialMT-46"/>
      <use x="81.607422" xlink:href="#ArialMT-32"/>
      <use x="109.390625" xlink:href="#ArialMT-102"/>
      <use x="137.173828" xlink:href="#ArialMT-97"/>
      <use x="192.789062" xlink:href="#ArialMT-108"/>
      <use x="215.005859" xlink:href="#ArialMT-99"/>
      <use x="265.005859" xlink:href="#ArialMT-105"/>
      <use x="287.222656" xlink:href="#ArialMT-112"/>
      <use x="342.837891" xlink:href="#ArialMT-97"/>
      <use x="398.453125" xlink:href="#ArialMT-114"/>
      <use x="431.753906" xlink:href="#ArialMT-117"/>
      <use x="487.369141" xlink:href="#ArialMT-109"/>
     </g>
    </g>
    <g id="line2d_35">
     <path d="M 121.491594 29.577271 
L 129.299094 29.577271 
" style="fill:none;stroke:#e377c2;stroke-linecap:round;stroke-width:1.3;"/>
    </g>
    <g id="line2d_36"/>
    <g id="text_22">
     <!-- Tuberculosis -->
     <g transform="translate(132.422094 31.763371)scale(0.06246 -0.06246)">
      <defs>
       <path d="M 25.921875 0 
L 25.921875 63.140625 
L 2.34375 63.140625 
L 2.34375 71.578125 
L 59.078125 71.578125 
L 59.078125 63.140625 
L 35.40625 63.140625 
L 35.40625 0 
z
" id="ArialMT-84"/>
      </defs>
      <use xlink:href="#ArialMT-84"/>
      <use x="57.333984" xlink:href="#ArialMT-117"/>
      <use x="112.949219" xlink:href="#ArialMT-98"/>
      <use x="168.564453" xlink:href="#ArialMT-101"/>
      <use x="224.179688" xlink:href="#ArialMT-114"/>
      <use x="257.480469" xlink:href="#ArialMT-99"/>
      <use x="307.480469" xlink:href="#ArialMT-117"/>
      <use x="363.095703" xlink:href="#ArialMT-108"/>
      <use x="385.3125" xlink:href="#ArialMT-111"/>
      <use x="440.927734" xlink:href="#ArialMT-115"/>
      <use x="490.927734" xlink:href="#ArialMT-105"/>
      <use x="513.144531" xlink:href="#ArialMT-115"/>
     </g>
    </g>
    <g id="line2d_37">
     <path d="M 121.491594 38.412433 
L 129.299094 38.412433 
" style="fill:none;stroke:#7f7f7f;stroke-linecap:round;stroke-width:1.3;"/>
    </g>
    <g id="line2d_38"/>
    <g id="text_23">
     <!-- Listeria -->
     <g transform="translate(132.422094 40.598533)scale(0.06246 -0.06246)">
      <defs>
       <path d="M 7.328125 0 
L 7.328125 71.578125 
L 16.796875 71.578125 
L 16.796875 8.453125 
L 52.046875 8.453125 
L 52.046875 0 
z
" id="ArialMT-76"/>
      </defs>
      <use xlink:href="#ArialMT-76"/>
      <use x="55.615234" xlink:href="#ArialMT-105"/>
      <use x="77.832031" xlink:href="#ArialMT-115"/>
      <use x="127.832031" xlink:href="#ArialMT-116"/>
      <use x="155.615234" xlink:href="#ArialMT-101"/>
      <use x="211.230469" xlink:href="#ArialMT-114"/>
      <use x="244.53125" xlink:href="#ArialMT-105"/>
      <use x="266.748047" xlink:href="#ArialMT-97"/>
     </g>
    </g>
    <g id="line2d_39">
     <path d="M 121.491594 47.323718 
L 129.299094 47.323718 
" style="fill:none;stroke:#bcbd22;stroke-linecap:round;stroke-width:1.3;"/>
    </g>
    <g id="line2d_40"/>
    <g id="text_24">
     <!-- StrepA -->
     <g transform="translate(132.422094 49.509818)scale(0.06246 -0.06246)">
      <defs>
       <path d="M 4.5 23 
L 13.421875 23.78125 
Q 14.0625 18.40625 16.375 14.96875 
Q 18.703125 11.53125 23.578125 9.40625 
Q 28.46875 7.28125 34.578125 7.28125 
Q 39.984375 7.28125 44.140625 8.890625 
Q 48.296875 10.5 50.3125 13.296875 
Q 52.34375 16.109375 52.34375 19.4375 
Q 52.34375 22.796875 50.390625 25.3125 
Q 48.4375 27.828125 43.953125 29.546875 
Q 41.0625 30.671875 31.203125 33.03125 
Q 21.34375 35.40625 17.390625 37.5 
Q 12.25 40.1875 9.734375 44.15625 
Q 7.234375 48.140625 7.234375 53.078125 
Q 7.234375 58.5 10.296875 63.203125 
Q 13.375 67.921875 19.28125 70.359375 
Q 25.203125 72.796875 32.421875 72.796875 
Q 40.375 72.796875 46.453125 70.234375 
Q 52.546875 67.671875 55.8125 62.6875 
Q 59.078125 57.71875 59.328125 51.421875 
L 50.25 50.734375 
Q 49.515625 57.515625 45.28125 60.984375 
Q 41.0625 64.453125 32.8125 64.453125 
Q 24.21875 64.453125 20.28125 61.296875 
Q 16.359375 58.15625 16.359375 53.71875 
Q 16.359375 49.859375 19.140625 47.359375 
Q 21.875 44.875 33.421875 42.265625 
Q 44.96875 39.65625 49.265625 37.703125 
Q 55.515625 34.8125 58.484375 30.390625 
Q 61.46875 25.984375 61.46875 20.21875 
Q 61.46875 14.5 58.203125 9.4375 
Q 54.9375 4.390625 48.796875 1.578125 
Q 42.671875 -1.21875 35.015625 -1.21875 
Q 25.296875 -1.21875 18.71875 1.609375 
Q 12.15625 4.4375 8.421875 10.125 
Q 4.6875 15.828125 4.5 23 
z
" id="ArialMT-83"/>
       <path d="M -0.140625 0 
L 27.34375 71.578125 
L 37.546875 71.578125 
L 66.84375 0 
L 56.0625 0 
L 47.703125 21.6875 
L 17.78125 21.6875 
L 9.90625 0 
z
M 20.515625 29.390625 
L 44.78125 29.390625 
L 37.3125 49.21875 
Q 33.890625 58.25 32.234375 64.0625 
Q 30.859375 57.171875 28.375 50.390625 
z
" id="ArialMT-65"/>
      </defs>
      <use xlink:href="#ArialMT-83"/>
      <use x="66.699219" xlink:href="#ArialMT-116"/>
      <use x="94.482422" xlink:href="#ArialMT-114"/>
      <use x="127.783203" xlink:href="#ArialMT-101"/>
      <use x="183.398438" xlink:href="#ArialMT-112"/>
      <use x="239.013672" xlink:href="#ArialMT-65"/>
     </g>
    </g>
   </g>
   <g id="axes_2">
    <g id="patch_8">
     <path d="M 142.27008 242.759461 
L 229.17093 242.759461 
L 229.17093 155.858611 
L 142.27008 155.858611 
z
" style="fill:#ffffff;"/>
    </g>
    <g id="matplotlib.axis_3">
     <g id="xtick_7">
      <g id="line2d_41">
       <g>
        <use style="stroke:#000000;stroke-width:0.8;" x="146.220119" xlink:href="#md139f80e0b" y="242.759461"/>
       </g>
      </g>
      <g id="text_25">
       <!-- 0.0 -->
       <g transform="translate(141.009704 252.625673)scale(0.07497 -0.07497)">
        <use xlink:href="#ArialMT-48"/>
        <use x="55.615234" xlink:href="#ArialMT-46"/>
        <use x="83.398438" xlink:href="#ArialMT-48"/>
       </g>
      </g>
     </g>
     <g id="xtick_8">
      <g id="line2d_42">
       <g>
        <use style="stroke:#000000;stroke-width:0.8;" x="190.558545" xlink:href="#md139f80e0b" y="242.759461"/>
       </g>
      </g>
      <g id="text_26">
       <!-- 0.1 -->
       <g transform="translate(185.34813 252.625673)scale(0.07497 -0.07497)">
        <use xlink:href="#ArialMT-48"/>
        <use x="55.615234" xlink:href="#ArialMT-46"/>
        <use x="83.398438" xlink:href="#ArialMT-49"/>
       </g>
      </g>
     </g>
    </g>
    <g id="matplotlib.axis_4">
     <g id="ytick_7">
      <g id="line2d_43">
       <g>
        <use style="stroke:#000000;stroke-width:0.8;" x="142.27008" xlink:href="#md132e5cfd6" y="220.48435"/>
       </g>
      </g>
      <g id="text_27">
       <!-- 0.9 -->
       <g transform="translate(127.34925 223.167456)scale(0.07497 -0.07497)">
        <defs>
         <path d="M 5.46875 16.546875 
L 13.921875 17.328125 
Q 14.984375 11.375 18.015625 8.6875 
Q 21.046875 6 25.78125 6 
Q 29.828125 6 32.875 7.859375 
Q 35.9375 9.71875 37.890625 12.8125 
Q 39.84375 15.921875 41.15625 21.1875 
Q 42.484375 26.46875 42.484375 31.9375 
Q 42.484375 32.515625 42.4375 33.6875 
Q 39.796875 29.5 35.234375 26.875 
Q 30.671875 24.265625 25.34375 24.265625 
Q 16.453125 24.265625 10.296875 30.703125 
Q 4.15625 37.15625 4.15625 47.703125 
Q 4.15625 58.59375 10.578125 65.234375 
Q 17 71.875 26.65625 71.875 
Q 33.640625 71.875 39.421875 68.109375 
Q 45.21875 64.359375 48.21875 57.390625 
Q 51.21875 50.4375 51.21875 37.25 
Q 51.21875 23.53125 48.234375 15.40625 
Q 45.265625 7.28125 39.375 3.03125 
Q 33.5 -1.21875 25.59375 -1.21875 
Q 17.1875 -1.21875 11.859375 3.4375 
Q 6.546875 8.109375 5.46875 16.546875 
z
M 41.453125 48.140625 
Q 41.453125 55.71875 37.421875 60.15625 
Q 33.40625 64.59375 27.734375 64.59375 
Q 21.875 64.59375 17.53125 59.8125 
Q 13.1875 55.03125 13.1875 47.40625 
Q 13.1875 40.578125 17.3125 36.296875 
Q 21.4375 32.03125 27.484375 32.03125 
Q 33.59375 32.03125 37.515625 36.296875 
Q 41.453125 40.578125 41.453125 48.140625 
z
" id="ArialMT-57"/>
        </defs>
        <use xlink:href="#ArialMT-48"/>
        <use x="55.615234" xlink:href="#ArialMT-46"/>
        <use x="83.398438" xlink:href="#ArialMT-57"/>
       </g>
      </g>
     </g>
     <g id="ytick_8">
      <g id="line2d_44">
       <g>
        <use style="stroke:#000000;stroke-width:0.8;" x="142.27008" xlink:href="#md132e5cfd6" y="195.504043"/>
       </g>
      </g>
      <g id="text_28">
       <!-- 1.0 -->
       <g transform="translate(127.34925 198.187149)scale(0.07497 -0.07497)">
        <use xlink:href="#ArialMT-49"/>
        <use x="55.615234" xlink:href="#ArialMT-46"/>
        <use x="83.398438" xlink:href="#ArialMT-48"/>
       </g>
      </g>
     </g>
     <g id="ytick_9">
      <g id="line2d_45">
       <g>
        <use style="stroke:#000000;stroke-width:0.8;" x="142.27008" xlink:href="#md132e5cfd6" y="170.523736"/>
       </g>
      </g>
      <g id="text_29">
       <!-- 1.1 -->
       <g transform="translate(127.34925 173.206842)scale(0.07497 -0.07497)">
        <use xlink:href="#ArialMT-49"/>
        <use x="55.615234" xlink:href="#ArialMT-46"/>
        <use x="83.398438" xlink:href="#ArialMT-49"/>
       </g>
      </g>
     </g>
    </g>
    <g id="PathCollection_10">
     <path clip-path="url(#p1a15d4b4be)" d="M 146.220119 215.517176 
C 146.639442 215.517176 147.041647 215.350577 147.338153 215.054071 
C 147.634659 214.757565 147.801257 214.35536 147.801257 213.936037 
C 147.801257 213.516714 147.634659 213.114509 147.338153 212.818003 
C 147.041647 212.521497 146.639442 212.354898 146.220119 212.354898 
C 145.800796 212.354898 145.398591 212.521497 145.102085 212.818003 
C 144.805579 213.114509 144.63898 213.516714 144.63898 213.936037 
C 144.63898 214.35536 144.805579 214.757565 145.102085 215.054071 
C 145.398591 215.350577 145.800796 215.517176 146.220119 215.517176 
z
" style="fill:#1f77b4;stroke:#1f77b4;stroke-width:0.8;"/>
     <path clip-path="url(#p1a15d4b4be)" d="M 144.63898 184.809526 
L 147.801257 184.809526 
L 147.801257 181.647249 
L 144.63898 181.647249 
z
" style="fill:#1f77b4;stroke:#1f77b4;stroke-width:0.8;"/>
     <path clip-path="url(#p1a15d4b4be)" d="M 147.801257 169.074405 
L 144.63898 167.493266 
L 144.63898 170.655543 
z
" style="fill:#1f77b4;stroke:#1f77b4;stroke-width:0.8;"/>
     <path clip-path="url(#p1a15d4b4be)" d="M 146.220119 162.044718 
L 147.561759 159.80865 
L 146.220119 157.572582 
L 144.878478 159.80865 
z
" style="fill:#1f77b4;stroke:#1f77b4;stroke-width:0.8;"/>
    </g>
    <g id="PathCollection_11">
     <path clip-path="url(#p1a15d4b4be)" d="M 147.452356 224.044524 
C 147.871679 224.044524 148.273884 223.877926 148.57039 223.58142 
C 148.866896 223.284913 149.033495 222.882708 149.033495 222.463386 
C 149.033495 222.044063 148.866896 221.641858 148.57039 221.345352 
C 148.273884 221.048845 147.871679 220.882247 147.452356 220.882247 
C 147.033033 220.882247 146.630828 221.048845 146.334322 221.345352 
C 146.037816 221.641858 145.871217 222.044063 145.871217 222.463386 
C 145.871217 222.882708 146.037816 223.284913 146.334322 223.58142 
C 146.630828 223.877926 147.033033 224.044524 147.452356 224.044524 
z
" style="fill:#ff7f0e;stroke:#ff7f0e;stroke-width:0.8;"/>
     <path clip-path="url(#p1a15d4b4be)" d="M 146.711882 198.25475 
L 149.87416 198.25475 
L 149.87416 195.092473 
L 146.711882 195.092473 
z
" style="fill:#ff7f0e;stroke:#ff7f0e;stroke-width:0.8;"/>
     <path clip-path="url(#p1a15d4b4be)" d="M 150.351234 185.425394 
L 147.188956 183.844255 
L 147.188956 187.006532 
z
" style="fill:#ff7f0e;stroke:#ff7f0e;stroke-width:0.8;"/>
     <path clip-path="url(#p1a15d4b4be)" d="M 149.785801 175.720617 
L 151.127442 173.484549 
L 149.785801 171.248481 
L 148.44416 173.484549 
z
" style="fill:#ff7f0e;stroke:#ff7f0e;stroke-width:0.8;"/>
    </g>
    <g id="PathCollection_12">
     <path clip-path="url(#p1a15d4b4be)" d="M 148.034739 230.636802 
C 148.454062 230.636802 148.856267 230.470203 149.152773 230.173697 
C 149.449279 229.877191 149.615878 229.474986 149.615878 229.055663 
C 149.615878 228.63634 149.449279 228.234135 149.152773 227.937629 
C 148.856267 227.641123 148.454062 227.474524 148.034739 227.474524 
C 147.615416 227.474524 147.213211 227.641123 146.916705 227.937629 
C 146.620199 228.234135 146.4536 228.63634 146.4536 229.055663 
C 146.4536 229.474986 146.620199 229.877191 146.916705 230.173697 
C 147.213211 230.470203 147.615416 230.636802 148.034739 230.636802 
z
" style="fill:#2ca02c;stroke:#2ca02c;stroke-width:0.8;"/>
     <path clip-path="url(#p1a15d4b4be)" d="M 148.621837 198.464021 
L 151.784115 198.464021 
L 151.784115 195.301744 
L 148.621837 195.301744 
z
" style="fill:#2ca02c;stroke:#2ca02c;stroke-width:0.8;"/>
     <path clip-path="url(#p1a15d4b4be)" d="M 154.368065 185.269615 
L 151.205788 183.688476 
L 151.205788 186.850754 
z
" style="fill:#2ca02c;stroke:#2ca02c;stroke-width:0.8;"/>
     <path clip-path="url(#p1a15d4b4be)" d="M 157.97416 177.287112 
L 159.315801 175.051044 
L 157.97416 172.814976 
L 156.63252 175.051044 
z
" style="fill:#2ca02c;stroke:#2ca02c;stroke-width:0.8;"/>
    </g>
    <g id="PathCollection_13">
     <path clip-path="url(#p1a15d4b4be)" d="M 157.412313 240.390561 
C 157.831636 240.390561 158.233841 240.223962 158.530347 239.927456 
C 158.826853 239.63095 158.993452 239.228745 158.993452 238.809422 
C 158.993452 238.390099 158.826853 237.987894 158.530347 237.691388 
C 158.233841 237.394882 157.831636 237.228283 157.412313 237.228283 
C 156.99299 237.228283 156.590785 237.394882 156.294279 237.691388 
C 155.997773 237.987894 155.831174 238.390099 155.831174 238.809422 
C 155.831174 239.228745 155.997773 239.63095 156.294279 239.927456 
C 156.590785 240.223962 156.99299 240.390561 157.412313 240.390561 
z
" style="fill:#d62728;stroke:#d62728;stroke-width:0.8;"/>
     <path clip-path="url(#p1a15d4b4be)" d="M 158.555498 218.152646 
L 161.717776 218.152646 
L 161.717776 214.990368 
L 158.555498 214.990368 
z
" style="fill:#d62728;stroke:#d62728;stroke-width:0.8;"/>
     <path clip-path="url(#p1a15d4b4be)" d="M 163.253606 205.02855 
L 160.091329 203.447411 
L 160.091329 206.609688 
z
" style="fill:#d62728;stroke:#d62728;stroke-width:0.8;"/>
     <path clip-path="url(#p1a15d4b4be)" d="M 167.431717 195.26366 
L 168.773358 193.027592 
L 167.431717 190.791524 
L 166.090076 193.027592 
z
" style="fill:#d62728;stroke:#d62728;stroke-width:0.8;"/>
    </g>
    <g id="PathCollection_14">
     <path clip-path="url(#p1a15d4b4be)" d="M 186.833226 237.052441 
C 187.252548 237.052441 187.654753 236.885842 187.95126 236.589336 
C 188.247766 236.29283 188.414364 235.890625 188.414364 235.471302 
C 188.414364 235.051979 188.247766 234.649774 187.95126 234.353268 
C 187.654753 234.056762 187.252548 233.890163 186.833226 233.890163 
C 186.413903 233.890163 186.011698 234.056762 185.715192 234.353268 
C 185.418685 234.649774 185.252087 235.051979 185.252087 235.471302 
C 185.252087 235.890625 185.418685 236.29283 185.715192 236.589336 
C 186.011698 236.885842 186.413903 237.052441 186.833226 237.052441 
z
" style="fill:#9467bd;stroke:#9467bd;stroke-width:0.8;"/>
     <path clip-path="url(#p1a15d4b4be)" d="M 197.901741 188.871865 
L 201.064019 188.871865 
L 201.064019 185.709588 
L 197.901741 185.709588 
z
" style="fill:#9467bd;stroke:#9467bd;stroke-width:0.8;"/>
     <path clip-path="url(#p1a15d4b4be)" d="M 208.189079 174.453781 
L 205.026801 172.872643 
L 205.026801 176.03492 
z
" style="fill:#9467bd;stroke:#9467bd;stroke-width:0.8;"/>
     <path clip-path="url(#p1a15d4b4be)" d="M 225.220891 165.461231 
L 226.562532 163.225163 
L 225.220891 160.989095 
L 223.879251 163.225163 
z
" style="fill:#9467bd;stroke:#9467bd;stroke-width:0.8;"/>
    </g>
    <g id="line2d_46">
     <path clip-path="url(#p1a15d4b4be)" d="M 146.220119 213.936037 
L 146.220119 183.228387 
L 146.220119 169.074405 
L 146.220119 159.80865 
" style="fill:none;stroke:#1f77b4;stroke-linecap:round;stroke-width:1.3;"/>
    </g>
    <g id="line2d_47">
     <path clip-path="url(#p1a15d4b4be)" d="M 147.452356 222.463386 
L 148.293021 196.673612 
L 148.770095 185.425394 
L 149.785801 173.484549 
" style="fill:none;stroke:#ff7f0e;stroke-linecap:round;stroke-width:1.3;"/>
    </g>
    <g id="line2d_48">
     <path clip-path="url(#p1a15d4b4be)" d="M 148.034739 229.055663 
L 150.202976 196.882883 
L 152.786926 185.269615 
L 157.97416 175.051044 
" style="fill:none;stroke:#2ca02c;stroke-linecap:round;stroke-width:1.3;"/>
    </g>
    <g id="line2d_49">
     <path clip-path="url(#p1a15d4b4be)" d="M 157.412313 238.809422 
L 160.136637 216.571507 
L 161.672467 205.02855 
L 167.431717 193.027592 
" style="fill:none;stroke:#d62728;stroke-linecap:round;stroke-width:1.3;"/>
    </g>
    <g id="line2d_50">
     <path clip-path="url(#p1a15d4b4be)" d="M 186.833226 235.471302 
L 199.48288 187.290726 
L 206.60794 174.453781 
L 225.220891 163.225163 
" style="fill:none;stroke:#9467bd;stroke-linecap:round;stroke-width:1.3;"/>
    </g>
    <g id="patch_9">
     <path d="M 142.27008 242.759461 
L 142.27008 155.858611 
" style="fill:none;stroke:#000000;stroke-linecap:square;stroke-linejoin:miter;"/>
    </g>
    <g id="patch_10">
     <path d="M 142.27008 242.759461 
L 229.17093 242.759461 
" style="fill:none;stroke:#000000;stroke-linecap:square;stroke-linejoin:miter;"/>
    </g>
   </g>
   <g id="legend_2">
    <g id="text_30">
     <!-- Model -->
     <g transform="translate(197.990758 14.16917)scale(0.06246 -0.06246)">
      <defs>
       <path d="M 40.234375 0 
L 40.234375 6.546875 
Q 35.296875 -1.171875 25.734375 -1.171875 
Q 19.53125 -1.171875 14.328125 2.25 
Q 9.125 5.671875 6.265625 11.796875 
Q 3.421875 17.921875 3.421875 25.875 
Q 3.421875 33.640625 6 39.96875 
Q 8.59375 46.296875 13.765625 49.65625 
Q 18.953125 53.03125 25.34375 53.03125 
Q 30.03125 53.03125 33.6875 51.046875 
Q 37.359375 49.078125 39.65625 45.90625 
L 39.65625 71.578125 
L 48.390625 71.578125 
L 48.390625 0 
z
M 12.453125 25.875 
Q 12.453125 15.921875 16.640625 10.984375 
Q 20.84375 6.0625 26.5625 6.0625 
Q 32.328125 6.0625 36.34375 10.765625 
Q 40.375 15.484375 40.375 25.140625 
Q 40.375 35.796875 36.265625 40.765625 
Q 32.171875 45.75 26.171875 45.75 
Q 20.3125 45.75 16.375 40.96875 
Q 12.453125 36.1875 12.453125 25.875 
z
" id="ArialMT-100"/>
      </defs>
      <use xlink:href="#ArialMT-77"/>
      <use x="83.300781" xlink:href="#ArialMT-111"/>
      <use x="138.916016" xlink:href="#ArialMT-100"/>
      <use x="194.53125" xlink:href="#ArialMT-101"/>
      <use x="250.146484" xlink:href="#ArialMT-108"/>
     </g>
    </g>
    <g id="line2d_51"/>
    <g id="line2d_52">
     <defs>
      <path d="M 0 0.9375 
C 0.248628 0.9375 0.487106 0.838719 0.662913 0.662913 
C 0.838719 0.487106 0.9375 0.248628 0.9375 0 
C 0.9375 -0.248628 0.838719 -0.487106 0.662913 -0.662913 
C 0.487106 -0.838719 0.248628 -0.9375 0 -0.9375 
C -0.248628 -0.9375 -0.487106 -0.838719 -0.662913 -0.662913 
C -0.838719 -0.487106 -0.9375 -0.248628 -0.9375 0 
C -0.9375 0.248628 -0.838719 0.487106 -0.662913 0.662913 
C -0.487106 0.838719 -0.248628 0.9375 0 0.9375 
z
" id="m7bc8c3d9f6" style="stroke:#1f77b4;stroke-width:0.8;"/>
     </defs>
     <g>
      <use style="fill:#1f77b4;stroke:#1f77b4;stroke-width:0.8;" x="187.742926" xlink:href="#m7bc8c3d9f6" y="20.818232"/>
     </g>
    </g>
    <g id="text_31">
     <!-- independent -->
     <g transform="translate(194.769676 23.004332)scale(0.06246 -0.06246)">
      <use xlink:href="#ArialMT-105"/>
      <use x="22.216797" xlink:href="#ArialMT-110"/>
      <use x="77.832031" xlink:href="#ArialMT-100"/>
      <use x="133.447266" xlink:href="#ArialMT-101"/>
      <use x="189.0625" xlink:href="#ArialMT-112"/>
      <use x="244.677734" xlink:href="#ArialMT-101"/>
      <use x="300.292969" xlink:href="#ArialMT-110"/>
      <use x="355.908203" xlink:href="#ArialMT-100"/>
      <use x="411.523438" xlink:href="#ArialMT-101"/>
      <use x="467.138672" xlink:href="#ArialMT-110"/>
      <use x="522.753906" xlink:href="#ArialMT-116"/>
     </g>
    </g>
    <g id="line2d_53"/>
    <g id="line2d_54">
     <defs>
      <path d="M -0.9375 0.9375 
L 0.9375 0.9375 
L 0.9375 -0.9375 
L -0.9375 -0.9375 
z
" id="m9ab614836a" style="stroke:#1f77b4;stroke-linejoin:miter;stroke-width:0.8;"/>
     </defs>
     <g>
      <use style="fill:#1f77b4;stroke:#1f77b4;stroke-linejoin:miter;stroke-width:0.8;" x="187.742926" xlink:href="#m9ab614836a" y="29.653394"/>
     </g>
    </g>
    <g id="text_32">
     <!-- ncov -->
     <g transform="translate(194.769676 31.839494)scale(0.06246 -0.06246)">
      <defs>
       <path d="M 21 0 
L 1.265625 51.859375 
L 10.546875 51.859375 
L 21.6875 20.796875 
Q 23.484375 15.765625 25 10.359375 
Q 26.171875 14.453125 28.265625 20.21875 
L 39.796875 51.859375 
L 48.828125 51.859375 
L 29.203125 0 
z
" id="ArialMT-118"/>
      </defs>
      <use xlink:href="#ArialMT-110"/>
      <use x="55.615234" xlink:href="#ArialMT-99"/>
      <use x="105.615234" xlink:href="#ArialMT-111"/>
      <use x="161.230469" xlink:href="#ArialMT-118"/>
     </g>
    </g>
    <g id="line2d_55"/>
    <g id="line2d_56">
     <defs>
      <path d="M 0.9375 0 
L -0.9375 -0.9375 
L -0.9375 0.9375 
z
" id="m01bffab1ba" style="stroke:#1f77b4;stroke-linejoin:miter;stroke-width:0.8;"/>
     </defs>
     <g>
      <use style="fill:#1f77b4;stroke:#1f77b4;stroke-linejoin:miter;stroke-width:0.8;" x="187.742926" xlink:href="#m01bffab1ba" y="38.488556"/>
     </g>
    </g>
    <g id="text_33">
     <!-- nskew -->
     <g transform="translate(194.769676 40.674656)scale(0.06246 -0.06246)">
      <defs>
       <path d="M 16.15625 0 
L 0.296875 51.859375 
L 9.375 51.859375 
L 17.625 21.921875 
L 20.703125 10.796875 
Q 20.90625 11.625 23.390625 21.484375 
L 31.640625 51.859375 
L 40.671875 51.859375 
L 48.4375 21.78125 
L 51.03125 11.859375 
L 54 21.875 
L 62.890625 51.859375 
L 71.4375 51.859375 
L 55.21875 0 
L 46.09375 0 
L 37.84375 31.0625 
L 35.84375 39.890625 
L 25.34375 0 
z
" id="ArialMT-119"/>
      </defs>
      <use xlink:href="#ArialMT-110"/>
      <use x="55.615234" xlink:href="#ArialMT-115"/>
      <use x="105.615234" xlink:href="#ArialMT-107"/>
      <use x="155.615234" xlink:href="#ArialMT-101"/>
      <use x="211.230469" xlink:href="#ArialMT-119"/>
     </g>
    </g>
    <g id="line2d_57"/>
    <g id="line2d_58">
     <defs>
      <path d="M -0 1.325825 
L 0.795495 0 
L 0 -1.325825 
L -0.795495 -0 
z
" id="maffacee94a" style="stroke:#1f77b4;stroke-linejoin:miter;stroke-width:0.8;"/>
     </defs>
     <g>
      <use style="fill:#1f77b4;stroke:#1f77b4;stroke-linejoin:miter;stroke-width:0.8;" x="187.742926" xlink:href="#maffacee94a" y="47.323718"/>
     </g>
    </g>
    <g id="text_34">
     <!-- nskewfcov -->
     <g transform="translate(194.769676 49.509818)scale(0.06246 -0.06246)">
      <use xlink:href="#ArialMT-110"/>
      <use x="55.615234" xlink:href="#ArialMT-115"/>
      <use x="105.615234" xlink:href="#ArialMT-107"/>
      <use x="155.615234" xlink:href="#ArialMT-101"/>
      <use x="211.230469" xlink:href="#ArialMT-119"/>
      <use x="283.447266" xlink:href="#ArialMT-102"/>
      <use x="311.230469" xlink:href="#ArialMT-99"/>
      <use x="361.230469" xlink:href="#ArialMT-111"/>
      <use x="416.845703" xlink:href="#ArialMT-118"/>
     </g>
    </g>
   </g>
  </g>
 </g>
 <defs>
  <clipPath id="p9721e65202">
   <rect height="202.095" width="202.095" x="31.11783" y="54.811111"/>
  </clipPath>
  <clipPath id="p1a15d4b4be">
   <rect height="86.90085" width="86.90085" x="142.27008" y="155.858611"/>
  </clipPath>
 </defs>
</svg>
